<svg xmlns="http://www.w3.org/2000/svg" viewBox="0 0 128 128" fill="none">
  <defs>
    <linearGradient id="tk-bg" x1="0" y1="0" x2="128" y2="128">
      <stop offset="0%" stop-color="#10b981"/>
      <stop offset="100%" stop-color="#059669"/>
    </linearGradient>
  </defs>
  <rect width="128" height="128" rx="28" fill="url(#tk-bg)"/>
  <!-- Phone handset -->
  <path d="M 40 42 L 54 42 Q 60 42 62 48 L 64 56 Q 65 61 61 64 L 56 68 Q 60 78 68 86 L 72 81 Q 75 77 80 78 L 88 80 Q 94 82 94 88 L 94 102 Q 94 108 88 108 Q 55 108 40 74 Q 34 60 34 48 Q 34 42 40 42 Z" fill="#ffffff"/>
  <!-- Sound waves -->
  <path d="M 82 44 Q 92 52 92 64" stroke="#ffffff" stroke-width="4" stroke-linecap="round" fill="none" opacity="0.85"/>
  <path d="M 74 38 Q 96 50 96 72" stroke="#ffffff" stroke-width="4" stroke-linecap="round" fill="none" opacity="0.55"/>
</svg>
